<?xml version="1.0" encoding="UTF-8"?>
<svg id="Layer_2" xmlns="http://www.w3.org/2000/svg" viewBox="0 0 51.3 52">
  <g id="_x31_">
    <g id="_x38_27_x2C__Balance_x2C__Justice_x2C__Law_x2C__Lawyer_x2C__Scale" fill="#A67D52">
      <g>
        <path d="M21.9,45c-.7,0-1.2.5-1.2,1.2v1.3h11.3v-1.3c0-.7-.5-1.2-1.2-1.2h-8.9Z"/>
        <path d="M17.5,26.2h-2.7l-4.5-12.5h12.7l.1-2.5H5.1l2.1,2.5h1.3l-4.5,12.5H1.3c.3,4.2,3.8,7.5,8.1,7.5s7.8-3.3,8.1-7.5ZM5.3,26.2l4.1-11.3,4.1,11.3H5.3Z"/>
        <path d="M48.2,5c1.4,0,2.5-1.1,2.5-2.5s-1.1-2.5-2.5-2.5-2.5,1.1-2.5,2.5,1.1,2.5,2.5,2.5Z"/>
        <path d="M3.8,43.1c-2.1,0-3.8,1.7-3.8,3.8s1.7,3.8,3.8,3.8,3.8-1.7,3.8-3.8-1.7-3.8-3.8-3.8Z"/>
        <polygon points="23.2 43.7 29.4 43.7 28.2 11.2 24.4 11.2 23.2 43.7"/>
        <path d="M48.6,26.2l-4.5-12.5h1.3l2.1-2.5h-18l.1,2.5h12.7l-4.6,12.5h-2.7c.3,4.2,3.8,7.5,8.1,7.5s7.8-3.3,8.1-7.5h-2.6ZM39.1,26.2l4.1-11.3,4.1,11.3h-8.2Z"/>
        <path d="M37.2,0c.5,0,.9.4.9.9s-.4.9-.9.9-.9-.4-.9-.9.4-.9.9-.9Z"/>
        <path d="M50.4,42.5c.5,0,.9.4.9.9s-.4.9-.9.9-.9-.4-.9-.9.4-.9.9-.9Z"/>
        <path d="M33.5,33.7c.5,0,.9.4.9.9s-.4.9-.9.9-.9-.4-.9-.9.4-.9.9-.9Z"/>
        <path d="M17.2,20c.5,0,.9.4.9.9s-.4.9-.9.9-.9-.4-.9-.9.4-.9.9-.9Z"/>
        <path d="M15.4,41.2c.5,0,.9.4.9.9s-.4.9-.9.9-.9-.4-.9-.9.4-.9.9-.9Z"/>
        <path d="M23.5,3.7c.5,0,.9.4.9.9s-.4.9-.9.9-.9-.4-.9-.9.4-.9.9-.9Z"/>
        <path d="M2.9,3.1c.5,0,.9.4.9.9s-.4.9-.9.9-.9-.4-.9-.9.4-.9.9-.9Z"/>
        <path d="M38.8,50.8h-2.5v-.9c0-.7-.5-1.2-1.2-1.2h-17.6c-.7,0-1.2.5-1.2,1.2v.9h-2.5c-.3,0-.6.3-.6.6s.3.6.6.6h25c.3,0,.6-.3.6-.6s-.3-.6-.6-.6Z"/>
      </g>
    </g>
  </g>
</svg>