<?xml version="1.0" encoding="UTF-8"?>
<svg id="Layer_2" xmlns="http://www.w3.org/2000/svg" viewBox="0 0 57.56 56.9">
  <g id="_x31_">
    <g id="_x37_06_x2C__Home_x2C__House_x2C__Real_Estate" fill="#A67D52">
      <g>
        <path d="M25.49,31.1c0-2,1.72-3.7,3.74-3.7s3.74,1.7,3.74,3.7v5.8h4.65v-14.1h-16.89v14.1h4.75v-5.8h0Z"/>
        <rect x="38.85" y="31" width="2.33" height="5.9"/>
        <polygon points="39.35 21.5 29.13 15.8 18.92 21.5 20.13 21.5 38.24 21.5 39.35 21.5"/>
        <rect x="17.1" y="31" width="2.33" height="5.9"/>
        <path d="M29.13.7c-7.59,0-14.77,2.9-20.13,8.2C3.64,14.2.71,21.3.71,28.8s2.93,14.6,8.29,19.9c5.36,5.3,12.54,8.2,20.13,8.2s14.77-2.9,20.13-8.2c5.36-5.3,8.29-12.4,8.29-19.9s-2.93-14.6-8.29-19.9C43.9,3.6,36.72.7,29.13.7ZM29.13,48.2c-10.82,0-19.62-8.7-19.62-19.4S18.31,9.4,29.13,9.4s19.62,8.7,19.62,19.4-8.8,19.4-19.62,19.4Z"/>
        <path d="M55.74,48.8c.73,0,1.31.58,1.31,1.3s-.59,1.3-1.31,1.3-1.31-.58-1.31-1.3.59-1.3,1.31-1.3Z"/>
        <path d="M46.84,0c.73,0,1.32.58,1.32,1.3s-.59,1.3-1.32,1.3-1.32-.58-1.32-1.3.59-1.3,1.32-1.3Z"/>
        <path d="M11.43,0c.73,0,1.31.58,1.31,1.3s-.59,1.3-1.31,1.3-1.32-.58-1.32-1.3.59-1.3,1.32-1.3Z"/>
        <path d="M1.31,10c.73,0,1.32.58,1.32,1.3s-.59,1.3-1.32,1.3-1.31-.58-1.31-1.3.59-1.3,1.31-1.3Z"/>
        <path d="M49.37,53.8c.73,0,1.31.58,1.31,1.3s-.59,1.3-1.31,1.3-1.31-.58-1.31-1.3.59-1.3,1.31-1.3Z"/>
        <path d="M12.75,53.8c.73,0,1.32.58,1.32,1.3s-.59,1.3-1.32,1.3-1.31-.58-1.31-1.3.59-1.3,1.31-1.3Z"/>
        <path d="M3.84,49.4c-1.72,0-3.14,1.4-3.14,3.1s1.42,3.1,3.14,3.1,3.14-1.4,3.14-3.1-1.42-3.1-3.14-3.1Z"/>
        <path d="M55.03,6.9c1.42,0,2.53-1.1,2.53-2.5s-1.11-2.5-2.53-2.5-2.53,1.1-2.53,2.5,1.21,2.5,2.53,2.5Z"/>
        <path d="M3.84,6.9c1.72,0,3.14-1.4,3.14-3.1S5.56.7,3.84.7.71,2.1.71,3.8s1.42,3.1,3.14,3.1Z"/>
        <path d="M38.04,40.7h-16.49c-.3,0-.61.3-.61.6s.3.6.61.6h16.49c.3,0,.61-.3.61-.6s-.3-.6-.61-.6Z"/>
        <path d="M31.66,44.4h-3.84c-.3,0-.61.3-.61.6s.3.6.61.6h3.84c.3,0,.61-.3.61-.6s-.2-.6-.61-.6Z"/>
      </g>
    </g>
  </g>
</svg>