<?xml version="1.0" encoding="UTF-8"?>
<svg id="Layer_2" xmlns="http://www.w3.org/2000/svg" viewBox="0 0 59.42 56.9">
  <g id="_x31_">
    <g id="_x37_22_x2C__Protection_x2C__Hands_x2C__House_x2C__Insurance" fill="#A67D52">
      <g>
        <path d="M39.45,26.9v-15h-17.7v15h5.06v-3.8c0-2.1,1.72-3.9,3.94-3.9s3.95,1.7,3.95,3.9v3.8h4.75Z"/>
        <path d="M28.12,23.1v3.8h5.26v-3.8c0-1.4-1.21-2.6-2.63-2.6-1.52,0-2.63,1.2-2.63,2.6Z"/>
        <rect x="40.67" y="20.7" width="2.53" height="6.3"/>
        <rect x="44.51" y="20.7" width="2.53" height="6.3"/>
        <rect x="14.16" y="20.7" width="2.53" height="6.3"/>
        <rect x="17.9" y="20.7" width="2.53" height="6.3"/>
        <rect x="10.32" y="20.7" width="2.53" height="6.3"/>
        <rect x="48.25" y="20.7" width="2.53" height="6.3"/>
        <polygon points="21.04 10.7 40.06 10.7 41.48 10.7 30.65 4.5 19.73 10.7 21.04 10.7"/>
        <path d="M4.65,43.8c.73,0,1.31.58,1.31,1.3s-.59,1.3-1.31,1.3-1.32-.58-1.32-1.3.59-1.3,1.32-1.3Z"/>
        <path d="M50.17,51.3c.73,0,1.32.58,1.32,1.3s-.59,1.3-1.32,1.3-1.31-.58-1.31-1.3.59-1.3,1.31-1.3Z"/>
        <path d="M55.23,46.3c.73,0,1.31.58,1.31,1.3s-.59,1.3-1.31,1.3-1.32-.58-1.32-1.3.59-1.3,1.32-1.3Z"/>
        <path d="M36.32,35c.73,0,1.32.58,1.32,1.3s-.59,1.3-1.32,1.3-1.32-.58-1.32-1.3.59-1.3,1.32-1.3Z"/>
        <path d="M51.49,13.8c.73,0,1.32.58,1.32,1.3s-.59,1.3-1.32,1.3-1.32-.58-1.32-1.3.59-1.3,1.32-1.3Z"/>
        <path d="M43.9,2.5c.73,0,1.32.58,1.32,1.3s-.59,1.3-1.32,1.3-1.32-.58-1.32-1.3.59-1.3,1.32-1.3Z"/>
        <path d="M18.61,0c.73,0,1.31.58,1.31,1.3s-.59,1.3-1.31,1.3-1.32-.58-1.32-1.3.59-1.3,1.32-1.3Z"/>
        <path d="M11.03,12.5c.73,0,1.31.58,1.31,1.3s-.59,1.3-1.31,1.3-1.32-.58-1.32-1.3.59-1.3,1.32-1.3Z"/>
        <path d="M4.65,18.8c.73,0,1.31.58,1.31,1.3s-.59,1.3-1.31,1.3-1.32-.58-1.32-1.3.59-1.3,1.32-1.3Z"/>
        <ellipse cx="27.41" cy="38.8" rx="1.31" ry="1.3"/>
        <path d="M56.45,31c-.91,0-1.72.4-2.33,1.1l-2.63,2.9c-1.82,2-4.45,3.2-7.28,3.2h-.81c-2.33,0-4.96,1.1-6.98,3-2.23,2-3.44,4.6-3.44,7.3v7.2h-6.37v-7.2c0-5.7-4.65-10.3-10.42-10.3h-.81c-2.73,0-5.36-1.2-7.28-3.2l-2.63-2.9c-.61-.7-1.42-1.1-2.33-1.1-1.52,0-3.14,1.2-3.14,3.1,0,.8.3,1.5.81,2.1l6.37,7.1c2.12,2.3,5.06,3.6,8.19,3.6,1.31,0,2.33,1,2.33,2.3v6.5h-4.45c-.3,0-.61.3-.61.6s.3.6.61.6h32.88c.3,0,.61-.3.61-.6s-.3-.6-.61-.6h-4.45v-6.5c0-1.3,1.01-2.3,2.33-2.3,3.14,0,6.07-1.3,8.19-3.6l6.37-7.1c.51-.6.81-1.3.81-2.1.3-1.9-1.32-3.1-2.93-3.1Z"/>
        <path d="M7.79,50.7c-1.42,0-2.53,1.1-2.53,2.5s1.11,2.5,2.53,2.5,2.53-1.1,2.53-2.5-1.11-2.5-2.53-2.5Z"/>
        <path d="M41.98,31.3c0-.3-.3-.6-.61-.6h-21.55c-.3,0-.61.3-.61.6s.3.6.61.6h21.55c.3,0,.61-.2.61-.6Z"/>
        <path d="M5.26,11.9c1.42,0,2.53-1.1,2.53-2.5s-1.11-2.5-2.53-2.5-2.53,1.1-2.53,2.5,1.11,2.5,2.53,2.5Z"/>
        <path d="M55.23,9.4c1.72,0,3.14-1.4,3.14-3.1s-1.42-3.1-3.14-3.1-3.14,1.4-3.14,3.1,1.42,3.1,3.14,3.1Z"/>
      </g>
    </g>
  </g>
</svg>