<?xml version="1.0" encoding="UTF-8"?>
<svg id="Layer_2" xmlns="http://www.w3.org/2000/svg" viewBox="0 0 55.6 53.8">
  <g id="_x31_">
    <g id="_x38_34_x2C__Clipboard_x2C__Judge_x2C__Justice_x2C__Hammer" fill="#A67D52">
      <g>
        <path d="M49.4,35.6c0-.7-.6-1.3-1.3-1.3h-13.3v2.5h13.3c.7,0,1.3-.5,1.3-1.2Z"/>
        <rect x="26" y="30.6" width="7.5" height="10"/>
        <path d="M19.2,9.9h15.3c1,0,1.8-.8,1.8-1.8v-.3c0-1-.8-1.8-1.8-1.8h-2.8c-.3,0-.5-.2-.6-.5-.5-1.9-2.2-3.3-4.2-3.3s-3.7,1.3-4.2,3.3c-.1.3-.3.5-.6.5h-2.8c-1,0-1.8.8-1.8,1.8v.3c0,1,.8,1.8,1.7,1.8Z"/>
        <path d="M23.5,43.1c0,.7.6,1.3,1.3,1.3h10c.7,0,1.3-.6,1.3-1.3s-.6-1.2-1.3-1.2h-10c-.7,0-1.3.5-1.3,1.2Z"/>
        <path d="M36,28.1c0-.7-.6-1.3-1.3-1.3h-10c-.7,0-1.3.6-1.3,1.3s.6,1.3,1.3,1.3h9.4c.1,0,.7,0,.6,0,.4,0,1.3-.6,1.3-1.3Z"/>
        <path d="M1.9,43.1c-1,0-1.9.8-1.9,1.9s.8,1.9,1.9,1.9,1.9-.8,1.9-1.9-.9-1.9-1.9-1.9Z"/>
        <path d="M55,5.6c0-1.7-1.4-3.1-3.1-3.1s-3.1,1.4-3.1,3.1,1.4,3.1,3.1,3.1,3.1-1.4,3.1-3.1Z"/>
        <path d="M41.2,49.4c0,.3-.3.6-.6.6H13.1c-.3,0-.6-.3-.6-.6V16.9c0-.3.3-.6.6-.6s.6.3.6.6v3.8h5c.3,0,.6.3.6.6s-.3.6-.6.6h-5v1.2h5c.3,0,.6.3.6.6s-.3.6-.6.6h-5v1.3h5c.3,0,.6.3.6.6s-.3.6-.6.6h-5v1.3h5c.3,0,.6.3.6.6s-.3.6-.6.6h-5v19.4h26.3v-10.6h-5.2v2.5h0c1.4,0,2.5,1.1,2.5,2.5s-1.1,2.5-2.5,2.5h-10c-1.4,0-2.5-1.1-2.5-2.5s1.1-2.5,2.5-2.5v-10c-1.4,0-2.5-1.1-2.5-2.5s1.1-2.5,2.5-2.5h10c1.4,0,2.5,1.1,2.5,2.5s-1.1,2.5-2.5,2.5h0v2.5h5.2v-16.2c0-.3.3-.6.6-.6s.6.3.6.6v16.2h3.8V11.5c0-1.5-1.2-2.8-2.8-2.8h-4.8c-.3,1.4-1.5,2.4-2.9,2.4h-15.3c-1.4,0-2.6-1-2.9-2.4h-4.8c-1.5,0-2.8,1.2-2.8,2.8v39.5c0,1.5,1.2,2.8,2.8,2.8h30.8c1.5,0,2.8-1.2,2.8-2.8v-12.9h-3.8v11.3h-.1Z"/>
        <path d="M54.7,25.3c.5,0,.9.4.9.9s-.4.9-.9.9-.9-.4-.9-.9.4-.9.9-.9Z"/>
        <path d="M49.7,46.9c.5,0,.9.4.9.9s-.4.9-.9.9-.9-.4-.9-.9.4-.9.9-.9Z"/>
        <path d="M50.3,13.1c.5,0,.9.4.9.9s-.4.9-.9.9-.9-.4-.9-.9.4-.9.9-.9Z"/>
        <path d="M39.7,0c.5,0,.9.4.9.9s-.4.9-.9.9-.9-.4-.9-.9.4-.9.9-.9Z"/>
        <path d="M10.9.6c.5,0,.9.4.9.9s-.4.9-.9.9-.9-.4-.9-.9.4-.9.9-.9Z"/>
        <path d="M1.5,16.9c.5,0,.9.4.9.9s-.4.9-.9.9-.9-.4-.9-.9.4-.9.9-.9Z"/>
        <path d="M5.3,33.1c.5,0,.9.4.9.9s-.4.9-.9.9-.9-.4-.9-.9.4-.9.9-.9Z"/>
      </g>
    </g>
  </g>
</svg>