<?xml version="1.0" encoding="UTF-8"?>
<svg id="Layer_2" xmlns="http://www.w3.org/2000/svg" viewBox="0 0 53.71 49.4">
  <g id="_x31_">
    <g id="_x38_50_x2C__Attorney_x2C__Judge_x2C__Justice_x2C__Law_x2C__Lawyer" fill="#A67D52" >
      <g>
        <polygon points="26.9 38 25.6 36.8 24.4 38 25.6 39.3 26.9 38"/>
        <polygon points="33.2 29.9 31.7 28.6 26.4 35.9 28.4 37.7 33.2 29.9"/>
        <path d="M23.1,37.6l1.7-1.7-5.4-7.3-1.5,1.3,4.5,8.2c.3-.1.7-.5.7-.5Z"/>
        <path d="M35.8,31.3l-1.6-.7-5.1,8.5c-.1.2-.3.3-.5.3h-.1c-.1,0-.2,0-.2-.1h0s-.1,0-.1-.1l-.3-.3-1.4,1.4,1.8,4.2,7.5-13.2Z"/>
        <path d="M15.3,31.2l7.7,13.2,1.8-4.1-1.4-1.4-.7.7c-.1.1-.2.1-.3.2h-.1c-.2,0-.4-.1-.5-.3l-4.9-8.9-1.6.6Z"/>
        <path d="M6.2,18.7c0-1.7-1.4-3.1-3.1-3.1s-3.1,1.4-3.1,3.1,1.4,3.1,3.1,3.1,3.1-1.4,3.1-3.1Z"/>
        <path d="M17.9,8.7h11.4c.8,0,1.5-.4,1.8-1.2.2-.3.5-.4.8-.3l3.3,1.6v-1.6l-3.9-3.5c-.1-.1-.1-.2-.2-.3,0-.1-.1-.2-.1-.2l-.1-.1c-.4-.7-1.2-1.2-2.1-1.2h-14.3v3.4c0,1.9,1.6,3.4,3.4,3.4ZM17.3,5.6h7.5c.3,0,.6.3.6.6s-.3.6-.6.6h-7.5c-.3,0-.6-.3-.6-.6s.2-.6.6-.6Z"/>
        <path d="M29.3,10h-11.4c-.6,0-1.1-.1-1.6-.3-.1.6-.2,1.3-.2,2,0,2.8,1,6.4,2.6,9.1,1.3,2.3,3.6,5.1,7.1,5.1s5.7-2.8,7.1-5.1c1.6-2.7,2.6-6.3,2.6-9.1,0-.7,0-.9-.1-1.4l-3.4-1.7c-.7.9-1.6,1.4-2.7,1.4ZM26.9,20.6h-1.3c-.3,0-.6-.3-.6-.6v-2.5c0-.3.3-.6.6-.6s.6.3.6.6v1.9h.6c.3,0,.6.3.6.6s-.2.6-.5.6ZM30.1,15.8h-1.9c-.8,0-1.6-.7-1.7-1.5-.7-.2-1.4-.2-2,0-.1.8-.8,1.5-1.7,1.5h-1.9c-.9,0-1.7-.7-1.7-1.7,0-.9.7-1.7,1.7-1.7h1.9c.5,0,1,.2,1.3.6.9-.3,1.8-.3,2.7,0,.3-.4.8-.6,1.3-.6h1.9c.9,0,1.7.7,1.7,1.7s-.7,1.7-1.6,1.7Z"/>
        <path d="M30.1,13.8h-1.9c-.1,0-.3.1-.4.2v.2h0c0,.2.2.4.4.4h1.9c.3,0,.4-.2.4-.4,0-.3-.2-.4-.4-.4Z"/>
        <path d="M6.2,35.1v14.3h4.4v-9.1c0-.3.3-.6.6-.6s.6.3.6.6v9.1h12.7l-10.4-17.7-7.9,3.4Z"/>
        <path d="M47.5,6.2c1,0,1.9-.8,1.9-1.9s-.8-1.9-1.9-1.9-1.9.9-1.9,2,.8,1.8,1.9,1.8Z"/>
        <path d="M53.4,14.6c-.3-.3-.9-.3-1.3,0l-6.1,6.1c-.2.2-.6.2-.9,0l-1-1.1c-.2-.2-.4-.3-.6-.3-.5,0-.9.4-.9.9,0,.2.1.5.3.6l2.8,2.8,5.8-5.8c3.1-3.1,1.6-1.6,2-2,.3-.3.3-.8-.1-1.2Z"/>
        <path d="M51.5,19.5l-5.5,5.5c-.2.2-.6.2-.9,0l-3.2-3.2c-.8-.8-.8-2.2,0-3,.8-.8,2.2-.8,3,0l.6.6,3.6-3.6c-1.2-.9-2.6-1.4-4.1-1.4-3.4,0-6.3,2.8-6.4,6.3-.1,3.7,3,6.9,6.9,6.7,3.3-.2,5.9-2.8,6.1-6.1.1-.7,0-1.2-.1-1.8Z"/>
        <path d="M22.9,13.8h-1.9c-.3,0-.4.2-.4.4s.2.4.4.4h1.9c.2,0,.4-.2.4-.4,0-.3-.2-.4-.4-.4Z"/>
        <path d="M26.7,49.4h12.7v-9.1c0-.3.3-.6.6-.6s.6.3.6.6v9.1h4.4v-14.3l-8-3.3-10.3,17.6Z"/>
        <polygon points="25.6 41.7 23.8 45.7 25.6 48.8 27.3 45.8 25.6 41.7"/>
        <path d="M41.5,1.3c.5,0,.9.4.9.9s-.4.9-.9.9-.9-.4-.9-.9.4-.9.9-.9Z"/>
        <path d="M1.5,0c.5,0,.9.4.9.9s-.4.9-.9.9-.9-.4-.9-.9.4-.9.9-.9Z"/>
        <path d="M10.9,10.6c.5,0,.9.4.9.9s-.4.9-.9.9-.9-.4-.9-.9.4-.9.9-.9Z"/>
        <path d="M5.3,27.5c.5,0,.9.4.9.9s-.4.9-.9.9-.9-.4-.9-.9.4-.9.9-.9Z"/>
        <path d="M50.9,31.9c.5,0,.9.4.9.9s-.4.9-.9.9-.9-.4-.9-.9.4-.9.9-.9Z"/>
        <circle cx="1.5" cy="46.5" r=".9"/>
      </g>
    </g>
  </g>
</svg>