<?xml version="1.0" encoding="UTF-8"?>
<svg id="Layer_2" xmlns="http://www.w3.org/2000/svg" viewBox="0 0 53.1 55.08">
  <g id="_x31_">
    <g id="_x38_46_x2C__Court_x2C__Hand_x2C__Justice_x2C__Law_x2C__Lawyer" fill="#A67D52">
      <g>
        <polygon points="3.5 51.17 12.2 55.08 13.7 51.67 5 47.67 3.5 51.17"/>
        <rect x="26.28" y="6.35" width="10" height="7.5" transform="translate(2.02 25.08) rotate(-45)"/>
        <path d="M6.2,20.67c0-1.7-1.4-3.1-3.1-3.1s-3.1,1.4-3.1,3.1,1.4,3.1,3.1,3.1,3.1-1.4,3.1-3.1Z"/>
        <path d="M44.2,35.17c-.4,0-.8.1-1.2.3l-5.2,2.3c-4,1.8-8.6,1.8-12.6,0l-1-.4c-6.8-3-14.7.1-17.6,6.8l-1.1,2.4,8.7,4,.7-1.5c1.1-2.4,3.9-3.6,6.4-2.5,3.7,1.6,7.9,1.6,11.6,0l12.5-5.7c.7-.3,1.2-.8,1.5-1.5.4-.9.3-2-.2-2.8-.5-.9-1.5-1.4-2.5-1.4Z"/>
        <path d="M16.2,26.48v1.1h12.5v-1.1c0-.4-.4-.8-.8-.8h-10.9c-.5,0-.8.4-.8.8Z"/>
        <path d="M28.6,19.88c.5.5,1.3.5,1.8,0s.5-1.3,0-1.8l-7.1-7.1c-.5-.5-1.3-.5-1.8,0-.5.5-.5,1.3,0,1.8l7.1,7.1Z"/>
        <path d="M32.6,2.67c.5.5,5.8,5.8,6.6,6.6.2.2.5.4.9.4.7,0,1.3-.6,1.3-1.3,0-.3-.1-.6-.4-.9L33.9.38c-.5-.5-1.3-.5-1.8,0s-.5,1.3,0,1.8c.1,0,.5.5.5.5Z"/>
        <path d="M51.2,6.98c-1,0-1.9.8-1.9,1.9s.8,1.9,1.9,1.9,1.9-.8,1.9-1.9-.9-1.9-1.9-1.9Z"/>
        <path d="M33.9,14.58l9.4,9.4c.5.5,1.3.5,1.8,0s.5-1.3,0-1.8l-9.4-9.4-1.8,1.8Z"/>
        <path d="M51.4,42.67c.5,0,.9.4.9.9s-.4.9-.9.9-.9-.4-.9-.9.4-.9.9-.9Z"/>
        <path d="M49.6,17.58c.5,0,.9.4.9.9s-.4.9-.9.9-.9-.4-.9-.9.4-.9.9-.9Z"/>
        <path d="M23.4,1.98c.5,0,.9.4.9.9s-.4.9-.9.9-.9-.4-.9-.9.4-.9.9-.9Z"/>
        <path d="M2.1,8.17c.5,0,.9.4.9.9s-.4.9-.9.9-.9-.4-.9-.9.4-.9.9-.9Z"/>
        <path d="M15.9,15.08c.5,0,.9.4.9.9s-.4.9-.9.9-.9-.4-.9-.9.4-.9.9-.9Z"/>
        <path d="M2.1,35.08c.5,0,.9.4.9.9s-.4.9-.9.9-.9-.4-.9-.9.4-.9.9-.9Z"/>
        <path d="M38.4,26.98c.5,0,.9.4.9.9s-.4.9-.9.9-.9-.4-.9-.9.4-.9.9-.9Z"/>
        <path d="M41.4,49.58c.5,0,.9.4.9.9s-.4.9-.9.9-.9-.4-.9-.9.4-.9.9-.9Z"/>
        <path d="M11.2,31.58h22.5c.3,0,.6-.3.6-.6s-.3-.6-.6-.6h-2.5v-.7c0-.4-.4-.8-.8-.8h-15.9c-.4,0-.8.4-.8.8v.7h-2.5c-.3,0-.6.3-.6.6s.2.6.6.6Z"/>
      </g>
    </g>
  </g>
</svg>