<?xml version="1.0" encoding="UTF-8"?>
<svg id="Layer_2" xmlns="http://www.w3.org/2000/svg" viewBox="0 0 59.48 56.4">
  <g id="_x31_">
    <g id="_x37_02_x2C__Estate_x2C__Garden_x2C__Plant_x2C__Real" fill="#25255E">
      <g>
        <rect x="15.17" y="31.2" width="5.06" height="2.5"/>
        <path d="M30.96,31.3c-2.43,1.6-3.84,4-3.84,6.4s1.42,4.7,3.84,6.4c2.43-1.6,3.84-4,3.84-6.4s-1.42-4.7-3.84-6.4Z"/>
        <path d="M41.78,46.4c-.61-.1-1.31-.2-1.92-.2-2.23,0-4.25.7-5.77,2.1-1.32,1.2-2.12,2.8-2.43,4.7v3.1c.81.2,1.52.2,2.23.2h0c2.23,0,4.25-.7,5.77-2.1,1.01-.9,1.11-2,1.21-3.5.1-1.2.2-2.7.91-4.3Z"/>
        <rect x="15.17" y="27.5" width="5.06" height="2.5"/>
        <path d="M27.92,48.3c-1.52-1.4-3.54-2.1-5.77-2.1-.61,0-1.32.1-1.92.2.61,1.4.71,2.7.81,4,.1,1.6.2,2.9,1.32,3.9,1.52,1.4,3.54,2.1,5.77,2.1.71,0,1.52-.1,2.23-.2v-3.1c-.3-1.9-1.11-3.6-2.43-4.8Z"/>
        <rect x="41.78" y="31.2" width="5.06" height="2.5"/>
        <rect x="41.78" y="27.5" width="5.06" height="2.5"/>
        <path d="M57.56,3c.73,0,1.32.58,1.32,1.3s-.59,1.3-1.32,1.3-1.32-.58-1.32-1.3.59-1.3,1.32-1.3Z"/>
        <path d="M57.56,49.3c.73,0,1.32.58,1.32,1.3s-.59,1.3-1.32,1.3-1.32-.58-1.32-1.3.59-1.3,1.32-1.3Z"/>
        <path d="M44.91,8c.73,0,1.31.58,1.31,1.3s-.59,1.3-1.31,1.3-1.32-.58-1.32-1.3.59-1.3,1.32-1.3Z"/>
        <path d="M26,.5c.73,0,1.31.58,1.31,1.3s-.59,1.3-1.31,1.3-1.32-.58-1.32-1.3.59-1.3,1.32-1.3Z"/>
        <path d="M5.77,3c.73,0,1.31.58,1.31,1.3s-.59,1.3-1.31,1.3-1.32-.58-1.32-1.3.59-1.3,1.32-1.3Z"/>
        <path d="M4.45,31.8c.73,0,1.32.58,1.32,1.3s-.59,1.3-1.32,1.3-1.32-.58-1.32-1.3.59-1.3,1.32-1.3Z"/>
        <path d="M58.87,8.7h-9.91c-.3,0-.61.3-.61.6s.3.6.61.6h9.31v14.4L32.47,5.1c-.2-.2-.5-.2-.71,0L3.84,24.5v-14.5h6.98c.3,0,.61-.3.61-.6v-5.1h3.84v5.1c0,.3.3.6.61.6h2.43c.3,0,.61-.3.61-.6s-.3-.6-.61-.6h-1.72V3.7c0-.3-.3-.6-.61-.6h-5.16c-.3,0-.61.3-.61.6v5.1H3.24c-.3,0-.61.3-.61.6v16.3c0,.2.1.4.3.6.2.1.51.1.61,0l4.05-2.8h1.32v26.6h6.98c.3,0,.61.3.61.6s-.3.6-.61.6h-6.98v3.8h12.34c-1.21-1.3-1.31-2.9-1.42-4.5-.1-1.4-.2-2.8-1.01-4.2-.1-.2-.1-.4,0-.6.1-.2.2-.3.41-.4,1.01-.2,2.02-.4,3.03-.4,2.63,0,4.86.8,6.58,2.4,1.01.9,1.72,2,2.23,3.2.51-1.2,1.32-2.3,2.23-3.2,1.72-1.6,4.05-2.4,6.58-2.4,1.01,0,2.02.1,3.04.4.2,0,.3.2.4.4.1.2.1.4,0,.6-.91,1.7-1.01,3.1-1.11,4.6-.1,1.5-.2,2.9-1.42,4.1h12.44v-3.8h-7.08c-.3,0-.61-.3-.61-.6s.3-.6.61-.6h7.08v-26.9h1.31l3.95,3c.1.1.2.1.41.1.1,0,.2,0,.3-.1.2-.1.3-.3.3-.6V9.3c0-.3-.3-.6-.61-.6ZM22.15,35h-8.9c-.3,0-.61-.3-.61-.6s.3-.6.61-.6h.61v-7c0-.3.3-.6.61-.6h6.37c.3,0,.61.3.61.6v6.9h.61c.3,0,.61.3.61.6s-.2.7-.51.7ZM31.36,45.4c-.1.1-.2.1-.3.1s-.2,0-.3-.1c-3.03-1.9-4.75-4.7-4.75-7.7s1.72-5.8,4.75-7.7c.2-.1.51-.1.71,0,3.03,1.9,4.75,4.7,4.75,7.7-.1,3-1.82,5.8-4.86,7.7ZM35.2,22.3h-2.53c1.62-.4,2.83-1.9,2.83-3.6,0-2.1-1.72-3.8-3.84-3.8s-3.84,1.7-3.84,3.8c0,1.8,1.21,3.3,2.93,3.6h-2.53c-1.01-.9-1.62-2.2-1.62-3.7,0-2.8,2.23-5,5.06-5s5.06,2.2,5.06,5c0,1.5-.61,2.8-1.52,3.7ZM48.76,35h-8.9c-.3,0-.61-.3-.61-.6s.3-.6.61-.6h.61v-7c0-.3.3-.6.61-.6h6.37c.3,0,.61.3.61.6v6.9h.61c.3,0,.61.3.61.6s-.2.7-.51.7Z"/>
        <path d="M2.53,43.7c-1.42,0-2.53,1.1-2.53,2.5s1.11,2.5,2.53,2.5,2.53-1.1,2.53-2.5-1.11-2.5-2.53-2.5Z"/>
        <path d="M49.37,5c1.42,0,2.53-1.1,2.53-2.5s-1.11-2.5-2.53-2.5-2.53,1.1-2.53,2.5c0,1.3,1.11,2.5,2.53,2.5Z"/>
        <path d="M58.17,46.8v-15c0-.3-.3-.6-.61-.6s-.61.3-.61.6v15c0,.3.3.6.61.6s.61-.2.61-.6Z"/>
      </g>
    </g>
  </g>
</svg>