<?xml version="1.0" encoding="UTF-8"?>
<svg id="Layer_2" xmlns="http://www.w3.org/2000/svg" viewBox="0 0 52.8 53.1">
  <g id="_x31_">
    <g id="_x38_36_x2C__Appointment_x2C__Calendar_x2C__Date" fill="#25255E">
      <g>
        <path d="M25,41.5l-1.8,1.8,9.4,9.4c.5.5,1.3.5,1.8,0s.5-1.3,0-1.8l-9.4-9.4Z"/>
        <path d="M21.4,32.7l-7.1,7.1,5.3,5.3,7.1-7.1c-1.5-1.6-3.7-3.7-5.3-5.3Z"/>
        <path d="M10.8,39.7c-.5.5-.5,1.3,0,1.8l7.1,7.1c.2.2.5.4.9.4.7,0,1.3-.6,1.3-1.2,0-.3-.1-.6-.4-.9l-7.1-7.1c-.5-.6-1.3-.6-1.8-.1Z"/>
        <path d="M4.1,13.7c2.1,0,3.8-1.7,3.8-3.8s-1.7-3.8-3.8-3.8S.3,7.8.3,9.9s1.7,3.8,3.8,3.8Z"/>
        <path d="M46.6,25.4v.1c0,.1-.1.3-.1.4l-.5,1.8-5.7,23.7,3.7-4.2.7-6.7c0-.3.3-.6.7-.6.3,0,.6.3.6.7l-.7,6.6,4.3,4.7-2.4-29.2-.6,2.7Z"/>
        <path d="M52.2,8.7c0-1-.8-1.9-1.9-1.9s-1.9.8-1.9,1.9.8,1.9,1.9,1.9,1.9-.9,1.9-1.9Z"/>
        <path d="M28.5,38c.5.5,1.3.5,1.8,0s.5-1.3,0-1.8l-7.1-7.1c-.5-.5-1.3-.5-1.8,0s-.5,1.3,0,1.8c2.2,2.1,1.4,1.3,7.1,7.1Z"/>
        <path d="M44.8,27.4h0l.3-1.2H6.4l-.4,1.5L0,53.1h31.2l-8.9-8.9-1.8,1.8h0c1,1,1,2.6,0,3.5-1,1-2.6,1-3.5,0l-7.1-7.1c-.5-.5-.7-1.1-.7-1.8,0-1.4,1.1-2.5,2.5-2.5.7,0,1.3.3,1.8.7l7.1-7.1c-1-1-1-2.6,0-3.5,1-1,2.6-1,3.5,0l7.1,7.1c1,1,1,2.6,0,3.5-1,1-2.6,1-3.5,0h0l-1.8,1.8,9.4,9.4c.8.8.9,2.1.4,3h3l6.1-25.6h0Z"/>
        <polygon points="40.6 53.1 49 53.1 44.7 48.4 40.6 53.1"/>
        <path d="M36.9,1.2c.5,0,.9.4.9.9s-.4.9-.9.9-.9-.4-.9-.9.4-.9.9-.9Z"/>
        <path d="M51.9,18.1c.5,0,.9.4.9.9s-.4.9-.9.9-.9-.4-.9-.9.4-.9.9-.9Z"/>
        <path d="M24.4,5c.5,0,.9.4.9.9s-.4.9-.9.9-.9-.4-.9-.9.4-.9.9-.9Z"/>
        <path d="M51.9,35.6c.5,0,.9.4.9.9s-.4.9-.9.9-.9-.4-.9-.9.4-.9.9-.9Z"/>
        <path d="M1.3,20.6c.5,0,.9.4.9.9s-.4.9-.9.9-.9-.4-.9-.9.4-.9.9-.9Z"/>
        <path d="M8.8,0c.5,0,.9.4.9.9s-.4.9-.9.9-.9-.4-.9-.9.4-.9.9-.9Z"/>
        <path d="M42.4,19.5h-2.8c.2.5.7.8,1.3.8,1,0,1.9.8,1.9,1.9s-.8,1.9-1.9,1.9c-2.6,0-4.8-2-5.1-4.5h-2.8c.2.5.7.8,1.3.8,1,0,1.9.8,1.9,1.9s-.8,1.9-1.9,1.9c-2.6,0-4.8-2-5.1-4.5h-2.8c.2.5.7.8,1.3.8,1,0,1.9.8,1.9,1.9s-.8,1.9-1.9,1.9c-2.6,0-4.8-2-5.1-4.5h-2.8c.2.5.7.8,1.3.8,1,0,1.9.8,1.9,1.9s-.8,1.9-1.9,1.9c-2.6,0-4.8-2-5.1-4.5h-3c.2.5.7.8,1.3.8,1,0,1.9.8,1.9,1.9s-.8,1.9-1.9,1.9c-2.6,0-4.8-2-5.1-4.5h-1l-1.4,5.4h38.7l1.4-5.4h-.9c-.3.7-1,1.2-1.8,1.2-.9-.5-1.6-1-1.8-1.7Z"/>
        <path d="M14.3,22.8c.3,0,.6-.3.6-.6s-.3-.6-.6-.6c-1.5,0-2.7-1.2-2.7-2.7s1.2-2.7,2.7-2.7,2.7,1.2,2.7,2.7c0,.1,0,.2.1.3.1,2,1.8,3.7,3.9,3.7.3,0,.6-.3.6-.6s-.3-.6-.6-.6c-1.5,0-2.7-1.2-2.7-2.7s1.2-2.7,2.7-2.7,2.7,1.2,2.7,2.7c0,2.2,1.8,3.9,3.9,3.9.3,0,.6-.3.6-.6s-.3-.6-.6-.6c-1.5,0-2.7-1.2-2.7-2.7s1.2-2.7,2.7-2.7,2.7,1.2,2.7,2.7c0,2.2,1.8,3.9,3.9,3.9.3,0,.6-.3.6-.6s-.3-.6-.6-.6c-1.5,0-2.7-1.2-2.7-2.7s1.2-2.7,2.7-2.7,2.7,1.2,2.7,2.7c0,2.2,1.8,3.9,3.9,3.9.3,0,.6-.3.6-.6s-.3-.6-.6-.6c-1.5,0-2.7-1.2-2.7-2.7s1.2-2.7,2.7-2.7,2.7,1.2,2.7,2.7c0,.3.3.6.6.6s.6-.3.6-.6c0-2.2-1.8-3.9-3.9-3.9-1.4,0-2.6.7-3.3,1.8-.7-1.1-1.9-1.8-3.3-1.8s-2.6.7-3.3,1.8c-.7-1.1-1.9-1.8-3.3-1.8s-2.6.7-3.3,1.8c-.7-1.1-1.9-1.8-3.3-1.8s-2.6.7-3.3,1.9c-.7-1.1-1.9-1.9-3.3-1.9-2.2,0-3.9,1.8-3.9,3.9-.2,2,1.6,3.8,3.8,3.8Z"/>
      </g>
    </g>
  </g>
</svg>