<?xml version="1.0" encoding="UTF-8"?>
<svg id="Layer_2" xmlns="http://www.w3.org/2000/svg" viewBox="0 0 54.09 50.5">
  <g id="_x31_">
    <g id="_x38_49_x2C__Attorney_x2C__Hammer_x2C__Judge_x2C__Auction_x2C__Justice" fill="#25255E">
      <g>
        <path d="M39.21,18.7c.3.3.8.3,1.1,0l.7-.7c.3-.3.3-.8,0-1.1l-11.3-11.2c-.3-.3-.8-.3-1.1,0l-.7.6c-.3.3-.3.8,0,1.1,1.4,1.4,10.1,10.2,11.3,11.3Z"/>
        <path d="M11.31,44.9h16.9v-1.4c0-1.6-1.3-3-3-3h-11c-1.6,0-3,1.3-3,3v1.4h.1Z"/>
        <path d="M50.71,23.1c1,0,1.9-.8,1.9-1.9s-.9-1.9-1.9-1.9-1.9.8-1.9,1.9.9,1.9,1.9,1.9Z"/>
        <path d="M42.41,13.9c.5-.5.5-1.2,0-1.7l-8.1-8.1c-.5-.5-1.2-.5-1.7,0l-1.4,1.4,9.7,9.7,1.5-1.3Z"/>
        <path d="M37.51,18.8c-1.1-1.1-8.6-8.6-9.7-9.7l-8,8,9.7,9.7,8-8Z"/>
        <path d="M23.01,31.7c.2.2.5.3.8.3s.6-.1.8-.3l1.4-1.4-9.7-9.7-1.4,1.4c-.5.5-.5,1.2,0,1.7l8.1,8Z"/>
        <path d="M53.41,39.1l-17.2-17.2-3.5,3.5,17.2,17.2c1,1,2.6,1,3.5,0,.9-.9.9-2.5,0-3.5Z"/>
        <path d="M27.71,30.2c.3.3.8.3,1.1,0l.7-.7c.3-.3.3-.8,0-1.1-1.8-1.8-.7-.7-11.3-11.3-.3-.3-.8-.3-1.1,0l-.7.7c-.3.3-.3.8,0,1.1,2.7,2.8,8.5,8.6,11.3,11.3Z"/>
        <path d="M44.11,0c.5,0,.9.4.9.9s-.4.9-.9.9-.9-.4-.9-.9.4-.9.9-.9Z"/>
        <path d="M52.91,10.6c.5,0,.9.4.9.9s-.4.9-.9.9-.9-.4-.9-.9.4-.9.9-.9Z"/>
        <path d="M11.01,31.8c.5,0,.9.4.9.9s-.4.9-.9.9-.9-.4-.9-.9.4-.9.9-.9Z"/>
        <path d="M40.41,40.6c.5,0,.9.4.9.9s-.4.9-.9.9-.9-.4-.9-.9.4-.9.9-.9Z"/>
        <path d="M17.31,4.3c.5,0,.9.4.9.9s-.4.9-.9.9-.9-.4-.9-.9.4-.9.9-.9Z"/>
        <path d="M43.81,49.3h-8.1v-.2c0-1.6-1.3-3-3-3H6.71c-1.6,0-3,1.3-3,3v.2H.61c-.3,0-.6.3-.6.6s.3.6.6.6h43.1c.3,0,.6-.3.6-.6s-.1-.6-.5-.6Z"/>
        <path d="M14.8,1.72c-.3-.3-.9-.3-1.3,0l-6.1,6.1c-.2.2-.6.2-.9,0l-1-1.1c-.2-.2-.4-.3-.6-.3-.5,0-.9.4-.9.9,0,.2.1.5.3.6l2.8,2.8,5.8-5.8c3.1-3.1,1.6-1.6,2-2,.3-.3.3-.8-.1-1.2Z"/>
        <path d="M12.9,6.62l-5.5,5.5c-.2.2-.6.2-.9,0l-3.2-3.2c-.8-.8-.8-2.2,0-3,.8-.8,2.2-.8,3,0l.6.6,3.6-3.6c-1.2-.9-2.6-1.4-4.1-1.4C3,1.52.1,4.32,0,7.82c-.1,3.7,3,6.9,6.9,6.7,3.3-.2,5.9-2.8,6.1-6.1.1-.7,0-1.2-.1-1.8Z"/>
      </g>
    </g>
  </g>
</svg>